#!OML:ASF F:\VICON\USERDATA\INSTALL\rory3\rory3.ASF
:FULLY-SPECIFIED
:DEGREES
53
root 0.34488362424620944 19.17821786318617 3.686767019101455 3.4397507437023336 1.3889870085784692 -1.5116421587675926
lfemur -38.722736855065335 9.171091745334984 -20.30901503324265
ltibia 29.14105728491192
lfoot 6.836645391560348 0.7709538373630487
ltoes -19.592216669954084
rfemur -32.31568187890754 -4.655771548140073 20.099141956361663
rtibia 29.488885422616022
rfoot 10.152765444959618 -3.2804255145692927
rtoes 6.891196571517065
lowerback 14.087314372060298 1.0256680038603125 -1.9650438168855364
upperback 6.204298172379737 1.1631365587814038 0.925884859942085
thorax -0.29630961503639786 0.4924554070271783 1.6757192993871504
lowerneck -10.610063034625412 0.2678713235796132 -0.736810427408015
upperneck 27.302206784965694 0.5685873426081405 -0.41704623241688354
head 9.219680805716239 0.1815791663987779 0.19297554120298793
lclavicle 3.860218159013038e-16 -1.437510469840955e-15
lhumerus -13.579332830272106 -9.777169069891187 74.57578885595335
lradius 32.04932818689369
lwrist 39.93005246138601
lhand -21.949627316571622 -8.722527777143279
lfingers 7.12502
lthumb 4.684880724505727 21.653369393557416
rclavicle 3.855452917877434e-16 -1.4380857728661339e-15
rhumerus -24.363586914565396 -0.5215984510130465 -80.3122254461814
rradius 42.66188759259342
rwrist 21.87007672439067
rhand -23.811343429639617 -20.221144383772888
rfingers 7.12502
rthumb 2.5617861324478213 -50.606321469630565
54
root 0.39711226951947043 18.023227183924476 4.992212386878739 -1.7877924962931289 0.5743181104257602 -1.1749934879232877
lfemur -37.05507144653814 9.191314570754646 -20.22625088640112
ltibia 34.312959286068825
lfoot 0.796995218504259 -0.026371220517349414
ltoes -22.088445559181878
rfemur -31.842713442845334 -4.133688988409223 19.620584931170306
rtibia 34.493931160264765
rfoot 4.879272045253137 1.3890292658814496
rtoes 6.515142636243917
lowerback 14.522900137276075 1.38450497067257 -1.6015365528213727
upperback 6.179220802621888 1.6156532277157947 0.9057212465351469
thorax -1.5717323076166037 0.6775705149674376 1.6967751411398087
lowerneck -10.958896979818073 0.2985944574875572 -0.8288639247662831
upperneck 30.03730758401502 0.5878887610939391 -0.3798174459955075
head 10.603705273592137 0.18989469464049205 0.2561394518174274
lclavicle 3.87140611545591e-16 -1.4359273231415474e-15
lhumerus -15.4287414879467 -8.08881962599028 73.71177666836336
lradius 30.14395974739221
lwrist 36.722796985788165
lhand -21.350364284046805 -8.43299687711478
lfingers 7.12502
lthumb 5.0723010622425555 21.878249310407305
rclavicle 3.8473574453150896e-16 -1.4392267274701271e-15
rhumerus -24.988662719462713 -2.148122653550532 -80.43211803540235
rradius 39.303266999287914
rwrist 24.009845314126487
rhand -23.56328057594175 -20.552646482337316
rfingers 7.12502
rthumb 2.7889108708965784 -50.84772454492623
55
root 0.40767526617366384 17.000773144288626 6.179514174812118 -5.546776933133655 -0.5708645793777714 -1.3703383182281048
lfemur -40.07732836510255 9.121338720499995 -19.521059798748347
ltibia 47.71645214283259
lfoot -11.122054380358467 2.228927129206456
ltoes -22.33547432999971
rfemur -34.93427844096309 -3.218593033819208 20.033431007625836
rtibia 46.95429844731088
rfoot -9.114281351149064 4.880790658215666
rtoes 3.4453600482726543
lowerback 16.307260895292274 1.8302810358998371 -1.1916841592346201
upperback 6.342383459058901 2.138288099378787 1.1528790691418773
thorax -2.931207910191463 0.9109839574072469 1.907625467561114
lowerneck -11.701713034474635 0.35412941401474934 -0.2499358041429246
upperneck 31.079482131397214 0.604829147936158 -0.3584254790329348
head 11.405177920083535 0.21970937432619866 0.24045114173916865
lclavicle 3.880112606563417e-16 -1.434705653260715e-15
lhumerus -16.29906829331191 -6.221912860904876 73.39182400371905
lradius 28.496152708198046
lwrist 34.37825680221978
lhand -23.328669435510523 -9.262364340361904
lfingers 7.12502
lthumb 3.0701696110950385 21.06641440809474
rclavicle 3.844949735484028e-16 -1.4395697371949918e-15
rhumerus -22.64342359007325 -5.7861076010466235 -79.82715851088979
rradius 34.8898027004475
rwrist 27.47602776458777
rhand -23.818611361514193 -22.134440515766837
rfingers 7.12502
rthumb 2.366661426132561 -52.39785724949127
56
root 0.4184570847460638 16.479179724670676 7.127908626086742 -8.288560601860583 -2.4091644531506473 -1.5734477515768115
lfemur -42.16061774080758 9.311019806549126 -18.63860671144849
ltibia 58.32964555680001
lfoot -15.140748457400994 6.843793195530064
ltoes -22.621743682073486
rfemur -37.54496546392532 -2.7371448340707625 20.45974265019242
rtibia 57.09303555854309
rfoot -14.741084077335959 1.8047616534706514
rtoes 0.61601352795239
lowerback 19.66190606174859 2.313671714464048 -0.9711758138728885
upperback 7.12578577129936 2.728552608425199 1.3167979578940363
thorax -3.268384020205892 1.186145860756202 2.0009379895847994
lowerneck -12.108699985865936 0.4515733444350398 0.8686736316029563
upperneck 31.768915633251666 0.6531262964972453 -0.36694501874639823
head 11.845681975031129 0.2686700047759652 0.15270637959795433
lclavicle 3.881092977685849e-16 -1.4345504218628697e-15
lhumerus -17.76538752368782 -4.799675260331796 73.81299097143177
lradius 27.578748203988496
lwrist 33.906015565156196
lhand -26.59455484518649 -11.088116340858214
lfingers 7.12502
lthumb -0.010192960696880249 19.389673316236745
rclavicle 3.8521270766614634e-16 -1.438562351465222e-15
rhumerus -17.259099281389197 -9.519126729404267 -80.22605195277677
rradius 30.83009515814247
rwrist 31.024825188367405
rhand -23.81733841715972 -23.328327927044413
rfingers 7.12502
rthumb 2.164800172760756 -53.58499566795931
57
root 0.4616027763071469 16.28205901781346 7.667694856118529 -7.549264605398163 -2.016884054670166 -1.1886533677400595
lfemur -41.83207716025767 8.408807729023106 -19.09528586891361
ltibia 61.40517913277694
lfoot -16.736208789020324 8.313988393878589
ltoes -23.94339895892752
rfemur -37.31771203917478 -3.1869508080609763 20.105014124583164
rtibia 59.606039560716056
rfoot -17.43342333701794 0.8939886570006976
rtoes -1.1339572372778584
lowerback 19.761352862771837 1.8006922326602242 -1.412962957449876
upperback 7.403323996017148 2.1675388531794377 1.2939762218711597
thorax -2.937712871090274 0.9526858656648667 2.1357606777035714
lowerneck -12.218832886059264 0.501831748016713 1.391493562021854
upperneck 33.56510608557617 0.6098210609548741 -0.20237884885598678
head 12.734288065555658 0.27019107394789366 0.22055947573993562
lclavicle 3.8814153244582325e-16 -1.4345157081144306e-15
lhumerus -21.18895177877357 -6.365087432695882 76.96260885432834
lradius 27.410136807163884
lwrist 33.699017614772146
lhand -26.81817287894525 -11.207004269894334
lfingers 7.12502
lthumb -0.43656282787178624 19.021314038219025
rclavicle 3.8535275938597275e-16 -1.4383685380310817e-15
rhumerus -13.51462643868701 -9.68676732161028 -82.96598751341905
rradius 29.587224975845306
rwrist 31.922825961337793
rhand -23.073780165178352 -23.49784415879095
rfingers 7.12502
rthumb 2.753756763602875 -53.702655009532606
58
root 0.47909023386660865 16.43011471091203 8.377538955268774 -4.981680732178495 -2.0751454364140467 -1.8431652443906625
lfemur -43.86167979083808 7.905447172727307 -18.617298756877194
ltibia 60.974399139787735
lfoot -16.6814687438697 8.642900074352776
ltoes -23.644225654161566
rfemur -35.03994087565217 -2.274837354604499 20.578223853681468
rtibia 55.35270534423937
rfoot -18.1312818667441 0.1698345847093723
rtoes -1.2425988752400672
lowerback 18.667479617619534 1.5343428070095337 -0.6075484655747851
upperback 7.631699776932181 1.8999041187490284 1.4730060421374032
thorax -2.2454210728130444 0.8439283739917243 2.0160975099383283
lowerneck -12.10858172087391 0.44946239644850106 1.4726264268959048
upperneck 33.58491753592459 0.4440991408364967 0.06285061027348537
head 13.002338471804094 0.20718709185257494 0.33977797422069245
lclavicle 3.8785917462368067e-16 -1.4348896341252185e-15
lhumerus -24.524787613298034 -6.074899591040525 79.19452684421805
lradius 27.74147706904275
lwrist 33.39309956643404
lhand -27.024014345847274 -11.472741416714682
lfingers 7.12502
lthumb -0.6710816697913123 18.68780539427667
rclavicle 3.8597541133582466e-16 -1.4374855319214544e-15
rhumerus -12.513510507666002 -9.005691729798786 -84.67629029143677
rradius 31.7740429749589
rwrist 29.810135349225217
rhand -22.900891565428605 -23.973790295026024
rfingers 7.12502
rthumb 2.940548283248104 -54.2472086183616
59
root 0.5065739480840836 16.87479673076117 9.002817378023401 -1.9999252125062643 -2.0356113638931985 -1.968612087621247
lfemur -43.062017286637534 7.556528221982111 -18.80474278239901
ltibia 56.60813475633838
lfoot -15.131955491738818 8.04428928303019
ltoes -21.973033902213913
rfemur -31.2807397037964 -1.5145640313063606 20.675183961068015
rtibia 47.689716357974376
rfoot -16.73349796873312 0.3929053589441547
rtoes 0.8633671562001748
lowerback 17.505099133059563 1.3107336436701038 -0.5676036409354626
upperback 7.609160671981098 1.6221321820598193 1.4215505930639694
thorax -1.6514187226375947 0.7333752014410626 1.93499155407813
lowerneck -11.892440302038075 0.38704444542971816 1.4291318530431476
upperneck 32.76881769913136 0.30612765579019996 0.2777734344768292
head 12.91646279099609 0.1504882391035145 0.42194522195290196
lclavicle 3.865420236981207e-16 -1.4366728274186947e-15
lhumerus -29.50461716944087 -5.600656620881153 80.9816727813282
lradius 28.0248451111332
lwrist 35.108003887616114
lhand -27.743366948610824 -12.68564057490974
lfingers 7.12502
lthumb -1.6299697854217752 17.53575462367035
rclavicle 3.871662361347185e-16 -1.4357993943425202e-15
rhumerus -13.442114239149538 -8.700507586882226 -85.376793382691
rradius 33.81127338540762
rwrist 27.07348311707012
rhand -22.80352174372896 -24.43191642388247
rfingers 7.12502
rthumb 3.129916186995753 -54.345560603405744
60
root 0.5346993076873815 17.38452748537 9.435060219052877 1.493589281712154 -1.954376296492668 -2.0356306956100694
lfemur -41.08177327507538 6.892561189526376 -18.91803226100427
ltibia 50.341626201005525
lfoot -13.080355612690177 6.850362805927688
ltoes -19.202425446308574
rfemur -27.259564648150747 -1.1542877505145699 20.747688164928
rtibia 40.089090137711516
rfoot -14.116534555404137 1.021937379662821
rtoes 4.239273533529271
lowerback 15.667270603869392 1.0905120442200409 -0.6581602880046998
upperback 7.356358700175468 1.364264565719881 1.3689763314973786
thorax -0.9447317018411634 0.6143889054199079 1.9279168549163948
lowerneck -11.734666143463794 0.32640171762977177 1.2654042069390132
upperneck 32.209691263709345 0.16314181462699762 0.4227319050424148
head 12.700660434525165 0.09387915787468981 0.46193859357295913
lclavicle 3.875412157115807e-16 -1.435191696759918e-15
lhumerus -34.767674826494655 -5.752081430070281 82.49976505695429
lradius 27.673141497858243
lwrist 34.789098236035954
lhand -28.606772203174962 -13.33816315231357
lfingers 7.12502
lthumb -2.847592030151582 16.68726347230973
rclavicle 3.8840421261093213e-16 -1.4340515266061968e-15
rhumerus -16.113794577729983 -8.288753996358796 -84.87384734092863
rradius 34.78651000832964
rwrist 25.575362648071994
rhand -22.49721274878243 -24.631072019011224
rfingers 7.12502
rthumb 3.6758100166431293 -54.16595374265299
